<?xml version="1.0" standalone="no"?>
<!DOCTYPE svg PUBLIC "-//W3C//DTD SVG 20010904//EN"
 "http://www.w3.org/TR/2001/REC-SVG-20010904/DTD/svg10.dtd">
<svg version="1.0" xmlns="http://www.w3.org/2000/svg"
 width="168.000000pt" height="135.000000pt" viewBox="0 0 168.000000 135.000000"
 preserveAspectRatio="xMidYMid meet">
<metadata>
Created by potrace 1.15, written by Peter Selinger 2001-2017
</metadata>
<g transform="translate(0.000000,135.000000) scale(0.100000,-0.100000)"
fill="#000000" stroke="none">
<path d="M312 991 c2 -38 7 -69 12 -68 14 3 20 -34 7 -42 -6 -4 -14 -23 -18
-41 -6 -34 -6 -34 11 -17 10 10 21 16 23 13 3 -3 -2 -12 -11 -21 -12 -12 -13
-21 -6 -35 13 -25 13 -30 -5 -30 -19 0 -20 -56 -1 -75 14 -15 56 -16 56 -2 0
4 4 6 10 2 13 -8 1 -35 -13 -30 -52 15 -67 15 -67 -3 0 -10 7 -27 15 -38 18
-24 21 -54 3 -36 -18 18 -33 15 -17 -4 7 -9 9 -18 3 -22 -12 -9 -15 -82 -3
-82 6 0 6 -6 0 -18 -20 -38 2 -138 23 -104 3 6 24 6 48 1 24 -4 47 -4 52 1 4
5 8 102 7 216 0 114 2 204 5 201 3 -3 20 11 38 30 28 31 35 34 52 24 18 -12
18 -12 0 -7 -13 5 -17 2 -13 -8 3 -8 -1 -17 -10 -20 -9 -4 -13 -13 -9 -23 4
-9 1 -20 -5 -24 -23 -14 41 -92 66 -83 9 4 15 0 15 -9 0 -15 220 -238 281
-286 l26 -20 7 98 c6 80 8 200 6 336 -1 11 -1 78 -1 150 0 91 -3 132 -12 137
-7 4 -38 8 -71 8 -51 0 -57 -2 -46 -15 10 -12 10 -18 -1 -32 -12 -15 -12 -16
3 -10 9 3 21 0 27 -7 8 -9 5 -12 -12 -12 -17 1 -22 -5 -23 -29 -4 -63 -5 -173
-2 -243 2 -47 -1 -72 -8 -72 -6 0 -17 -12 -24 -27 -7 -16 -15 -23 -17 -15 -3
6 -9 10 -14 6 -5 -3 -9 0 -9 6 0 6 8 10 17 8 13 -2 18 4 18 24 1 18 -14 43
-47 79 -26 29 -48 49 -48 43 0 -5 -6 2 -13 16 -7 13 -24 30 -37 37 -14 7 -22
13 -17 13 15 0 -71 70 -86 70 -9 0 -14 6 -11 13 5 13 -48 67 -66 67 -5 0 -16
13 -25 30 -13 26 -42 50 -60 50 -3 0 -5 -31 -3 -69z"/>
<path d="M1199 1048 c-1 -7 -2 -52 -3 -100 -1 -64 3 -89 12 -93 7 -3 10 -10 7
-15 -4 -7 3 -8 20 -4 21 5 26 4 23 -7 -3 -8 -16 -14 -29 -14 -18 0 -23 -5 -21
-20 2 -11 9 -26 14 -32 18 -22 -11 -15 -29 7 -19 22 -39 26 -45 8 -3 -7 -9 -8
-19 -3 -8 5 -56 11 -106 13 l-93 3 0 -66 0 -65 79 0 c99 0 202 -11 196 -20 -3
-4 -7 -75 -10 -158 l-5 -151 75 0 75 0 2 82 c0 45 2 207 2 359 1 223 -2 279
-12 283 -29 11 -132 5 -133 -7z"/>
</g>
</svg>
